<svg width="17" height="17" viewBox="0 0 17 17" fill="none" xmlns="http://www.w3.org/2000/svg">
<g clip-path="url(#clip0_1_3768)">
<path d="M14.4313 3.32453C14.0831 2.97613 13.6696 2.69976 13.2145 2.5112C12.7594 2.32264 12.2717 2.22559 11.7791 2.22559C11.2865 2.22559 10.7987 2.32264 10.3436 2.5112C9.88857 2.69976 9.4751 2.97613 9.12687 3.32453L8.40416 4.04724L7.68145 3.32453C6.97804 2.62112 6.02401 2.22595 5.02923 2.22595C4.03446 2.22595 3.08043 2.62112 2.37702 3.32453C1.67361 4.02794 1.27844 4.98197 1.27844 5.97674C1.27844 6.97151 1.67361 7.92554 2.37702 8.62895L3.09973 9.35166L8.40416 14.6561L13.7086 9.35166L14.4313 8.62895C14.7797 8.28072 15.0561 7.86725 15.2446 7.41218C15.4332 6.9571 15.5302 6.46934 15.5302 5.97674C15.5302 5.48415 15.4332 4.99638 15.2446 4.54131C15.0561 4.08623 14.7797 3.67277 14.4313 3.32453V3.32453Z" stroke="white" stroke-opacity="0.7" stroke-width="1.3636" stroke-linecap="round" stroke-linejoin="round"/>
</g>
<defs>
<clipPath id="clip0_1_3768">
<rect width="16.3633" height="16.3633" fill="white" transform="translate(0.222168 0.181519)"/>
</clipPath>
</defs>
</svg>
