<svg width="16" height="16" viewBox="0 0 16 16" fill="none" xmlns="http://www.w3.org/2000/svg">
<g clip-path="url(#clip0_1_545)">
<path d="M8.00574 12.198L3.56531 10.03L8.00171 16L8.66821 15.103V11.8735L8.00574 12.198Z" fill="#15BFFD"/>
<path d="M8.00171 0L2.90625 9.14294H13.0973L8.00171 0Z" fill="#15BFFD"/>
<path d="M13.0973 9.15649L8.00171 0V9.15649H13.0973Z" fill="#1286B0"/>
<path d="M6.46021 5.078H7.46021V6.078H6.46021V5.078Z" fill="#F7F8FA"/>
<path d="M8.00171 6.66003L7.98169 6.65051L2.90674 9.15051H2.91125L7.98621 11.6505L8.00623 11.641L8.66821 11.317V6.98645L8.00171 6.66003Z" fill="#147EA5"/>
<path d="M6.46021 3.18652H7.46021V4.18652H6.46021V3.18652Z" fill="#F7F8FA"/>
<path d="M8.00574 12.198L8.00171 16L12.4413 10.026L8.00574 12.198Z" fill="#1286B0"/>
<path d="M13.0878 9.15051L8.00171 6.66003L7.98169 6.65051L7.98621 11.6505L8.00623 11.641L13.0923 9.15051H13.0878Z" fill="#0E526A"/>
</g>
<defs>
<clipPath id="clip0_1_545">
<rect width="16" height="16" fill="white"/>
</clipPath>
</defs>
</svg>
