<svg width="80" height="80" viewBox="0 0 80 80" fill="none" xmlns="http://www.w3.org/2000/svg">
<path d="M69.9002 53.6C69.1002 62.5 62.6669 68.3334 53.3335 68.3334H23.3335C14.1335 68.3334 6.66687 60.8667 6.66687 51.6667V28.3334C6.66687 19.2667 12.1335 12.9334 20.6335 11.8667C21.5002 11.7334 22.4002 11.6667 23.3335 11.6667H53.3335C54.2002 11.6667 55.0335 11.7 55.8335 11.8334C63.8002 12.7667 69.2002 18.3334 69.9002 26.4C70.0002 27.3667 69.2002 28.1667 68.2335 28.1667H63.0669C59.8669 28.1667 56.9002 29.4 54.7669 31.6C52.2335 34.0667 50.9669 37.5334 51.2669 41C51.8002 47.0667 57.1335 51.8334 63.4669 51.8334H68.2335C69.2002 51.8334 70.0002 52.6334 69.9002 53.6Z" fill="white"/>
<path d="M73.3334 36.5667V43.4334C73.3334 45.2667 71.8667 46.7667 70.0001 46.8334H63.4667C59.8667 46.8334 56.5667 44.2 56.2667 40.6C56.0667 38.5 56.8667 36.5334 58.2667 35.1667C59.5001 33.9 61.2001 33.1667 63.0667 33.1667H70.0001C71.8667 33.2334 73.3334 34.7334 73.3334 36.5667Z" fill="white"/>
</svg>
