<svg width="256" height="130" viewBox="0 0 256 130" fill="none" xmlns="http://www.w3.org/2000/svg">
<g filter="url(#filter0_b_1_3036)">
<rect x="1.04541" y="1" width="253" height="128" rx="6" fill="url(#paint0_linear_1_3036)" fill-opacity="0.1"/>
<rect x="0.54541" y="0.5" width="254" height="129" rx="6.5" stroke="url(#paint1_linear_1_3036)"/>
</g>
<path fill-rule="evenodd" clip-rule="evenodd" d="M117.826 42.1975L129.009 31.0139L140.202 42.2071L146.709 35.7001L129.009 18L111.319 35.6905L117.826 42.1975ZM100.214 46.7951L106.719 40.2899L113.224 46.7951L106.719 53.3004L100.214 46.7951ZM129.009 62.5809L117.826 51.3973L111.309 57.8947L111.319 57.9043L129.009 75.5948L146.709 57.8947L140.202 51.3878L129.009 62.5809ZM144.789 46.7997L151.294 40.2944L157.8 46.7997L151.294 53.305L144.789 46.7997ZM129.009 40.1946L135.612 46.7974L129.009 53.4098L122.406 46.807V46.7879L123.566 45.6283L124.131 45.0725L129.009 40.1946Z" fill="#F3BA2F"/>
<path opacity="0.7" d="M88.4861 108V105.56H91.8061C92.4194 105.56 92.8994 105.38 93.2461 105.02C93.5927 104.66 93.7661 104.22 93.7661 103.7C93.7661 103.34 93.6861 103.02 93.5261 102.74C93.3661 102.46 93.1394 102.24 92.8461 102.08C92.5661 101.92 92.2194 101.84 91.8061 101.84H88.4861V99.46H91.5461C92.0661 99.46 92.4861 99.3333 92.8061 99.08C93.1261 98.8133 93.2861 98.4133 93.2861 97.88C93.2861 97.36 93.1261 96.9733 92.8061 96.72C92.4861 96.4533 92.0661 96.32 91.5461 96.32H88.4861V93.88H92.1461C93.0527 93.88 93.8194 94.0467 94.4461 94.38C95.0861 94.7133 95.5727 95.16 95.9061 95.72C96.2394 96.28 96.4061 96.9 96.4061 97.58C96.4061 98.4467 96.1261 99.18 95.5661 99.78C95.0061 100.38 94.1794 100.793 93.0861 101.02L93.1661 99.96C94.3527 100.187 95.2661 100.647 95.9061 101.34C96.5594 102.033 96.8861 102.887 96.8861 103.9C96.8861 104.673 96.6927 105.373 96.3061 106C95.9327 106.613 95.3861 107.1 94.6661 107.46C93.9594 107.82 93.1061 108 92.1061 108H88.4861ZM86.0861 108V93.88H89.1861V108H86.0861ZM100.619 108V98.28H103.679V108H100.619ZM102.159 96.94C101.679 96.94 101.279 96.78 100.959 96.46C100.652 96.1267 100.499 95.7267 100.499 95.26C100.499 94.78 100.652 94.38 100.959 94.06C101.279 93.74 101.679 93.58 102.159 93.58C102.639 93.58 103.032 93.74 103.339 94.06C103.645 94.38 103.799 94.78 103.799 95.26C103.799 95.7267 103.645 96.1267 103.339 96.46C103.032 96.78 102.639 96.94 102.159 96.94ZM114.253 108V102.46C114.253 101.953 114.093 101.547 113.773 101.24C113.467 100.92 113.073 100.76 112.593 100.76C112.26 100.76 111.967 100.833 111.713 100.98C111.46 101.113 111.26 101.313 111.113 101.58C110.967 101.833 110.893 102.127 110.893 102.46L109.713 101.88C109.713 101.12 109.88 100.453 110.213 99.88C110.547 99.3067 111.007 98.8667 111.593 98.56C112.193 98.24 112.867 98.08 113.613 98.08C114.333 98.08 114.967 98.2533 115.513 98.6C116.073 98.9333 116.513 99.38 116.833 99.94C117.153 100.5 117.313 101.113 117.313 101.78V108H114.253ZM107.833 108V98.28H110.893V108H107.833ZM125.339 108.2C124.445 108.2 123.645 107.98 122.939 107.54C122.245 107.1 121.692 106.5 121.279 105.74C120.879 104.98 120.679 104.113 120.679 103.14C120.679 102.167 120.879 101.3 121.279 100.54C121.692 99.78 122.245 99.18 122.939 98.74C123.645 98.3 124.445 98.08 125.339 98.08C125.992 98.08 126.579 98.2067 127.099 98.46C127.632 98.7133 128.065 99.0667 128.399 99.52C128.732 99.96 128.919 100.467 128.959 101.04V105.24C128.919 105.813 128.732 106.327 128.399 106.78C128.079 107.22 127.652 107.567 127.119 107.82C126.585 108.073 125.992 108.2 125.339 108.2ZM125.959 105.44C126.612 105.44 127.139 105.227 127.539 104.8C127.939 104.36 128.139 103.807 128.139 103.14C128.139 102.687 128.045 102.287 127.859 101.94C127.685 101.593 127.432 101.327 127.099 101.14C126.779 100.94 126.405 100.84 125.979 100.84C125.552 100.84 125.172 100.94 124.839 101.14C124.519 101.327 124.259 101.593 124.059 101.94C123.872 102.287 123.779 102.687 123.779 103.14C123.779 103.58 123.872 103.973 124.059 104.32C124.245 104.667 124.505 104.94 124.839 105.14C125.172 105.34 125.545 105.44 125.959 105.44ZM128.019 108V105.38L128.479 103.02L128.019 100.66V98.28H131.019V108H128.019ZM141.593 108V102.46C141.593 101.953 141.433 101.547 141.113 101.24C140.807 100.92 140.413 100.76 139.933 100.76C139.6 100.76 139.307 100.833 139.053 100.98C138.8 101.113 138.6 101.313 138.453 101.58C138.307 101.833 138.233 102.127 138.233 102.46L137.053 101.88C137.053 101.12 137.22 100.453 137.553 99.88C137.887 99.3067 138.347 98.8667 138.933 98.56C139.533 98.24 140.207 98.08 140.953 98.08C141.673 98.08 142.307 98.2533 142.853 98.6C143.413 98.9333 143.853 99.38 144.173 99.94C144.493 100.5 144.653 101.113 144.653 101.78V108H141.593ZM135.173 108V98.28H138.233V108H135.173ZM153.319 108.22C152.319 108.22 151.412 108 150.599 107.56C149.785 107.12 149.145 106.513 148.679 105.74C148.212 104.967 147.979 104.1 147.979 103.14C147.979 102.167 148.212 101.3 148.679 100.54C149.159 99.7667 149.805 99.16 150.619 98.72C151.432 98.28 152.345 98.06 153.359 98.06C154.119 98.06 154.812 98.1933 155.439 98.46C156.079 98.7133 156.645 99.1 157.139 99.62L155.179 101.58C154.952 101.327 154.685 101.14 154.379 101.02C154.085 100.9 153.745 100.84 153.359 100.84C152.919 100.84 152.525 100.94 152.179 101.14C151.845 101.327 151.579 101.593 151.379 101.94C151.192 102.273 151.099 102.667 151.099 103.12C151.099 103.573 151.192 103.973 151.379 104.32C151.579 104.667 151.852 104.94 152.199 105.14C152.545 105.34 152.932 105.44 153.359 105.44C153.759 105.44 154.112 105.373 154.419 105.24C154.739 105.093 155.012 104.893 155.239 104.64L157.179 106.6C156.672 107.133 156.099 107.54 155.459 107.82C154.819 108.087 154.105 108.22 153.319 108.22ZM165.106 108.22C164.053 108.22 163.113 108.007 162.286 107.58C161.473 107.14 160.833 106.533 160.366 105.76C159.899 104.987 159.666 104.113 159.666 103.14C159.666 102.167 159.893 101.3 160.346 100.54C160.813 99.7667 161.439 99.16 162.226 98.72C163.013 98.28 163.899 98.06 164.886 98.06C165.846 98.06 166.693 98.2667 167.426 98.68C168.159 99.0933 168.733 99.6667 169.146 100.4C169.573 101.133 169.786 101.973 169.786 102.92C169.786 103.093 169.773 103.28 169.746 103.48C169.733 103.667 169.699 103.887 169.646 104.14L161.266 104.16V102.06L168.346 102.04L167.026 102.92C167.013 102.36 166.926 101.9 166.766 101.54C166.606 101.167 166.366 100.887 166.046 100.7C165.739 100.5 165.359 100.4 164.906 100.4C164.426 100.4 164.006 100.513 163.646 100.74C163.299 100.953 163.026 101.26 162.826 101.66C162.639 102.06 162.546 102.547 162.546 103.12C162.546 103.693 162.646 104.187 162.846 104.6C163.059 105 163.353 105.313 163.726 105.54C164.113 105.753 164.566 105.86 165.086 105.86C165.566 105.86 165.999 105.78 166.386 105.62C166.773 105.447 167.113 105.193 167.406 104.86L169.086 106.54C168.606 107.1 168.026 107.52 167.346 107.8C166.666 108.08 165.919 108.22 165.106 108.22Z" fill="white"/>
<defs>
<filter id="filter0_b_1_3036" x="-24.9546" y="-25" width="305" height="180" filterUnits="userSpaceOnUse" color-interpolation-filters="sRGB">
<feFlood flood-opacity="0" result="BackgroundImageFix"/>
<feGaussianBlur in="BackgroundImageFix" stdDeviation="12.5"/>
<feComposite in2="SourceAlpha" operator="in" result="effect1_backgroundBlur_1_3036"/>
<feBlend mode="normal" in="SourceGraphic" in2="effect1_backgroundBlur_1_3036" result="shape"/>
</filter>
<linearGradient id="paint0_linear_1_3036" x1="-10.528" y1="-9.21276" x2="94.6835" y2="228.682" gradientUnits="userSpaceOnUse">
<stop stop-color="white" stop-opacity="0.44"/>
<stop offset="1" stop-color="#8F8F8F" stop-opacity="0.21"/>
</linearGradient>
<linearGradient id="paint1_linear_1_3036" x1="-23.3194" y1="-15.4989" x2="89.4347" y2="234.948" gradientUnits="userSpaceOnUse">
<stop stop-color="#E025CE"/>
<stop offset="0.505208" stop-color="white" stop-opacity="0"/>
<stop offset="1" stop-color="#E025CE"/>
</linearGradient>
</defs>
</svg>
