<svg width="255" height="130" viewBox="0 0 255 130" fill="none" xmlns="http://www.w3.org/2000/svg">
<g filter="url(#filter0_b_1_3046)">
<rect x="1" y="1" width="253" height="128" rx="6" fill="url(#paint0_linear_1_3046)" fill-opacity="0.1"/>
<rect x="0.5" y="0.5" width="254" height="129" rx="6.5" stroke="url(#paint1_linear_1_3046)"/>
</g>
<path opacity="0.7" d="M87.2319 110.22C86.1785 110.22 85.1985 110.04 84.2919 109.68C83.3985 109.307 82.6119 108.787 81.9319 108.12C81.2652 107.453 80.7452 106.68 80.3719 105.8C79.9985 104.907 79.8119 103.947 79.8119 102.92C79.8119 101.893 79.9985 100.94 80.3719 100.06C80.7452 99.1667 81.2652 98.3933 81.9319 97.74C82.5985 97.0867 83.3785 96.58 84.2719 96.22C85.1785 95.8467 86.1585 95.66 87.2119 95.66C88.3319 95.66 89.3252 95.84 90.1919 96.2C91.0719 96.56 91.8385 97.0533 92.4919 97.68L90.3919 99.8C90.0185 99.4 89.5652 99.0867 89.0319 98.86C88.5119 98.6333 87.9052 98.52 87.2119 98.52C86.5985 98.52 86.0319 98.6267 85.5119 98.84C85.0052 99.04 84.5652 99.3333 84.1919 99.72C83.8319 100.107 83.5452 100.573 83.3319 101.12C83.1319 101.667 83.0319 102.267 83.0319 102.92C83.0319 103.587 83.1319 104.193 83.3319 104.74C83.5452 105.287 83.8319 105.753 84.1919 106.14C84.5652 106.527 85.0052 106.827 85.5119 107.04C86.0319 107.253 86.5985 107.36 87.2119 107.36C87.9319 107.36 88.5585 107.247 89.0919 107.02C89.6252 106.793 90.0852 106.48 90.4719 106.08L92.5919 108.2C91.9119 108.827 91.1319 109.32 90.2519 109.68C89.3852 110.04 88.3785 110.22 87.2319 110.22ZM100.487 110.22C99.4866 110.22 98.5799 110 97.7666 109.56C96.9666 109.107 96.3332 108.493 95.8666 107.72C95.3999 106.947 95.1666 106.08 95.1666 105.12C95.1666 104.16 95.3999 103.3 95.8666 102.54C96.3332 101.78 96.9666 101.18 97.7666 100.74C98.5666 100.287 99.4732 100.06 100.487 100.06C101.5 100.06 102.407 100.28 103.207 100.72C104.007 101.16 104.64 101.767 105.107 102.54C105.573 103.3 105.807 104.16 105.807 105.12C105.807 106.08 105.573 106.947 105.107 107.72C104.64 108.493 104.007 109.107 103.207 109.56C102.407 110 101.5 110.22 100.487 110.22ZM100.487 107.44C100.927 107.44 101.313 107.347 101.647 107.16C101.98 106.96 102.233 106.687 102.407 106.34C102.593 105.98 102.687 105.573 102.687 105.12C102.687 104.667 102.593 104.273 102.407 103.94C102.22 103.593 101.96 103.327 101.627 103.14C101.307 102.94 100.927 102.84 100.487 102.84C100.06 102.84 99.6799 102.94 99.3466 103.14C99.0132 103.327 98.7532 103.593 98.5666 103.94C98.3799 104.287 98.2866 104.687 98.2866 105.14C98.2866 105.58 98.3799 105.98 98.5666 106.34C98.7532 106.687 99.0132 106.96 99.3466 107.16C99.6799 107.347 100.06 107.44 100.487 107.44ZM112.117 110L107.997 100.28H111.297L114.097 108.38H112.657L115.457 100.28H118.697L114.577 109.98L112.117 110ZM125.585 110.2C124.692 110.2 123.892 109.98 123.185 109.54C122.492 109.1 121.939 108.5 121.525 107.74C121.125 106.98 120.925 106.113 120.925 105.14C120.925 104.167 121.125 103.3 121.525 102.54C121.939 101.78 122.492 101.18 123.185 100.74C123.892 100.3 124.692 100.08 125.585 100.08C126.239 100.08 126.825 100.207 127.345 100.46C127.879 100.713 128.312 101.067 128.645 101.52C128.979 101.96 129.165 102.467 129.205 103.04V107.24C129.165 107.813 128.979 108.327 128.645 108.78C128.325 109.22 127.899 109.567 127.365 109.82C126.832 110.073 126.239 110.2 125.585 110.2ZM126.205 107.44C126.859 107.44 127.385 107.227 127.785 106.8C128.185 106.36 128.385 105.807 128.385 105.14C128.385 104.687 128.292 104.287 128.105 103.94C127.932 103.593 127.679 103.327 127.345 103.14C127.025 102.94 126.652 102.84 126.225 102.84C125.799 102.84 125.419 102.94 125.085 103.14C124.765 103.327 124.505 103.593 124.305 103.94C124.119 104.287 124.025 104.687 124.025 105.14C124.025 105.58 124.119 105.973 124.305 106.32C124.492 106.667 124.752 106.94 125.085 107.14C125.419 107.34 125.792 107.44 126.205 107.44ZM128.265 110V107.38L128.725 105.02L128.265 102.66V100.28H131.265V110H128.265ZM135.42 110V95.48H138.48V110H135.42ZM147.435 110.22C146.381 110.22 145.441 110.007 144.615 109.58C143.801 109.14 143.161 108.533 142.695 107.76C142.228 106.987 141.995 106.113 141.995 105.14C141.995 104.167 142.221 103.3 142.675 102.54C143.141 101.767 143.768 101.16 144.555 100.72C145.341 100.28 146.228 100.06 147.215 100.06C148.175 100.06 149.021 100.267 149.755 100.68C150.488 101.093 151.061 101.667 151.475 102.4C151.901 103.133 152.115 103.973 152.115 104.92C152.115 105.093 152.101 105.28 152.075 105.48C152.061 105.667 152.028 105.887 151.975 106.14L143.595 106.16V104.06L150.675 104.04L149.355 104.92C149.341 104.36 149.255 103.9 149.095 103.54C148.935 103.167 148.695 102.887 148.375 102.7C148.068 102.5 147.688 102.4 147.235 102.4C146.755 102.4 146.335 102.513 145.975 102.74C145.628 102.953 145.355 103.26 145.155 103.66C144.968 104.06 144.875 104.547 144.875 105.12C144.875 105.693 144.975 106.187 145.175 106.6C145.388 107 145.681 107.313 146.055 107.54C146.441 107.753 146.895 107.86 147.415 107.86C147.895 107.86 148.328 107.78 148.715 107.62C149.101 107.447 149.441 107.193 149.735 106.86L151.415 108.54C150.935 109.1 150.355 109.52 149.675 109.8C148.995 110.08 148.248 110.22 147.435 110.22ZM162.012 110V104.46C162.012 103.953 161.852 103.547 161.532 103.24C161.225 102.92 160.832 102.76 160.352 102.76C160.018 102.76 159.725 102.833 159.472 102.98C159.218 103.113 159.018 103.313 158.872 103.58C158.725 103.833 158.652 104.127 158.652 104.46L157.472 103.88C157.472 103.12 157.638 102.453 157.972 101.88C158.305 101.307 158.765 100.867 159.352 100.56C159.952 100.24 160.625 100.08 161.372 100.08C162.092 100.08 162.725 100.253 163.272 100.6C163.832 100.933 164.272 101.38 164.592 101.94C164.912 102.5 165.072 103.113 165.072 103.78V110H162.012ZM155.592 110V100.28H158.652V110H155.592ZM170.3 110V96.26H173.36V110H170.3ZM168.1 102.88V100.28H175.56V102.88H168.1Z" fill="white"/>
<rect x="96" y="21" width="63" height="63" rx="8" fill="#010427"/>
<path d="M129.131 39.16V29.1936C116.35 29.1936 106 39.6578 106 51.9734C106 64.2895 116.35 74.7542 129.131 74.7542V64.7878C122.309 64.7878 116.12 60.5165 116.12 51.9739C116.12 43.4313 122.309 39.16 129.131 39.16Z" fill="white"/>
<path d="M143.16 40.0899C142.415 40.0899 141.679 39.9449 140.991 39.6631C140.304 39.3813 139.679 38.9682 139.153 38.4475C138.627 37.9268 138.209 37.3087 137.924 36.6283C137.64 35.948 137.493 35.2188 137.493 34.4825C137.493 33.7461 137.64 33.0169 137.924 32.3366C138.209 31.6563 138.627 31.0381 139.153 30.5174C139.679 29.9967 140.304 29.5836 140.991 29.3018C141.679 29.02 142.415 28.875 143.16 28.875C144.662 28.875 146.104 29.4658 147.166 30.5174C148.229 31.569 148.826 32.9953 148.826 34.4825C148.826 35.9697 148.229 37.3959 147.166 38.4475C146.104 39.4991 144.662 40.0899 143.16 40.0899Z" fill="#00DCD7"/>
<path d="M143.16 75.0728C141.657 75.0728 140.215 74.482 139.153 73.4304C138.09 72.3788 137.493 70.9526 137.493 69.4654C137.493 67.9782 138.09 66.5519 139.153 65.5003C140.215 64.4487 141.657 63.8579 143.16 63.8579C144.662 63.8579 146.104 64.4487 147.166 65.5003C148.229 66.5519 148.826 67.9782 148.826 69.4654C148.826 70.9526 148.229 72.3788 147.166 73.4304C146.104 74.482 144.662 75.0728 143.16 75.0728Z" fill="#FF318B"/>
<path d="M129.595 64.3996V39.5483C136.533 39.5483 142.305 45.0708 142.148 51.973C142.305 58.8771 136.534 64.3996 129.595 64.3996Z" fill="white"/>
<defs>
<filter id="filter0_b_1_3046" x="-25" y="-25" width="305" height="180" filterUnits="userSpaceOnUse" color-interpolation-filters="sRGB">
<feFlood flood-opacity="0" result="BackgroundImageFix"/>
<feGaussianBlur in="BackgroundImageFix" stdDeviation="12.5"/>
<feComposite in2="SourceAlpha" operator="in" result="effect1_backgroundBlur_1_3046"/>
<feBlend mode="normal" in="SourceGraphic" in2="effect1_backgroundBlur_1_3046" result="shape"/>
</filter>
<linearGradient id="paint0_linear_1_3046" x1="-10.5734" y1="-9.21276" x2="94.638" y2="228.682" gradientUnits="userSpaceOnUse">
<stop stop-color="white" stop-opacity="0.44"/>
<stop offset="1" stop-color="#8F8F8F" stop-opacity="0.21"/>
</linearGradient>
<linearGradient id="paint1_linear_1_3046" x1="-23.3648" y1="-15.4989" x2="89.3893" y2="234.948" gradientUnits="userSpaceOnUse">
<stop stop-color="#E025CE"/>
<stop offset="0.505208" stop-color="white" stop-opacity="0"/>
<stop offset="1" stop-color="#E025CE"/>
</linearGradient>
</defs>
</svg>
