<svg width="256" height="130" viewBox="0 0 256 130" fill="none" xmlns="http://www.w3.org/2000/svg">
<g filter="url(#filter0_b_1_2991)">
<rect x="1.36377" y="1" width="253" height="128" rx="6" fill="url(#paint0_linear_1_2991)" fill-opacity="0.1"/>
<rect x="0.86377" y="0.5" width="254" height="129" rx="6.5" stroke="url(#paint1_linear_1_2991)"/>
</g>
<path d="M126.912 20.7585V41.9558C126.912 42.0458 126.822 42.1358 126.732 42.1358C126.103 42.4109 125.563 42.6834 124.933 42.9559C124.123 43.3184 123.223 43.6835 122.413 44.1386L119.444 45.5012L117.014 46.5938L114.045 47.959C113.235 48.324 112.425 48.6865 111.525 49.1416C110.896 49.4141 110.176 49.7792 109.546 50.0517C109.456 50.0517 109.456 50.1417 109.366 50.0517H109.276C109.546 49.5966 109.816 49.2316 110.086 48.7791C111.525 46.3213 113.055 43.866 114.495 41.4082C116.025 38.773 117.644 36.1327 119.174 33.4949C120.614 31.0397 122.053 28.5844 123.493 26.2192C124.573 24.3964 125.653 22.6713 126.642 20.8485C126.822 20.8485 126.822 20.7585 126.912 20.7585C126.912 20.7585 126.822 20.7585 126.912 20.7585Z" fill="#8C8C8C"/>
<path d="M144.369 50.0518C143.019 50.9619 141.58 51.7794 140.23 52.597C135.821 55.2373 131.501 57.7851 127.092 60.4229C127.002 60.4229 127.002 60.5129 126.912 60.5129C126.822 60.5129 126.822 60.4229 126.822 60.4229V42.1359C126.822 42.0459 126.912 42.0459 127.002 42.0459C127.362 42.2259 127.722 42.411 128.172 42.5909C129.252 43.1385 130.422 43.5936 131.501 44.1386C132.491 44.5937 133.391 45.0487 134.381 45.4112C135.371 45.8663 136.271 46.3214 137.26 46.7764C138.07 47.1415 138.97 47.504 139.78 47.959C140.59 48.3241 141.49 48.6866 142.299 49.1417C142.929 49.4142 143.559 49.7792 144.279 50.0518C144.279 49.9618 144.279 50.0518 144.369 50.0518Z" fill="#141414"/>
<path d="M126.912 78.3449C126.912 78.3449 126.822 78.3449 126.912 78.3449C126.822 78.3449 126.822 78.3449 126.732 78.2524C124.933 75.7072 123.223 73.2493 121.423 70.7016L116.024 63.0608C114.315 60.6055 112.515 58.1503 110.805 55.5999L109.456 53.6897C109.456 53.5997 109.366 53.5997 109.366 53.5098C109.456 53.5098 109.456 53.5997 109.546 53.5997C111.975 55.0549 114.495 56.51 116.924 57.9652C119.714 59.6954 122.593 61.3331 125.382 63.0608C125.832 63.3333 126.372 63.6058 126.822 63.8783C126.912 63.8783 126.912 63.9709 126.912 64.0609V78.3449Z" fill="#8C8C8C"/>
<path d="M109.276 49.0997C109.276 49.0097 109.276 49.0097 109.276 49.0997C110.176 48.6446 111.076 48.2821 111.975 47.827L115.485 46.1894C116.384 45.7343 117.284 45.3718 118.184 44.9168C119.444 44.2792 120.794 43.7341 122.053 43.0965C122.953 42.7315 123.853 42.2764 124.753 41.9139C125.383 41.6414 126.013 41.3689 126.642 41.0038C126.732 41.0038 126.732 40.9138 126.822 40.9138V59.4708C126.732 59.5633 126.732 59.4708 126.642 59.4708C126.373 59.2908 126.103 59.1983 125.923 59.0157L109.456 49.1922C109.366 49.0997 109.276 49.0997 109.276 49.0997ZM144.099 52.4676C144.099 52.5575 144.099 52.5575 144.009 52.6475C138.79 60.1084 133.571 67.4766 128.352 74.9375C127.812 75.755 127.272 76.4826 126.732 77.3027V62.8361C127.902 62.1085 129.072 61.381 130.242 60.746L144.009 52.5575C144.009 52.4676 144.099 52.4676 144.099 52.4676Z" fill="#3C3C3B"/>
<path d="M126.912 42.0459V20.8538L144.189 49.7818C144.279 49.8718 144.369 49.9618 144.369 50.0544C144.009 49.8744 143.649 49.6893 143.199 49.5093C142.749 49.3268 142.299 49.0543 141.85 48.8717C141.58 48.7817 141.31 48.5992 140.95 48.5067C140.5 48.3267 139.96 48.0516 139.51 47.8716C139.24 47.7791 138.97 47.5991 138.7 47.5066L136.811 46.689C136.451 46.5065 136.181 46.4165 135.821 46.234C135.371 46.0514 134.921 45.7789 134.471 45.5964C134.201 45.5064 133.931 45.3238 133.661 45.2339L131.772 44.4137C131.412 44.2338 131.142 44.1412 130.782 43.9587C130.332 43.7787 129.882 43.5036 129.432 43.3211C129.162 43.1411 128.802 43.0486 128.532 42.8686L126.912 42.0485V42.0459Z" fill="#343434"/>
<path opacity="0.7" d="M76.7819 111V96.88H79.9219V111H76.7819ZM79.1819 111V108.28H86.9219V111H79.1819ZM79.1819 105.1V102.48H86.2219V105.1H79.1819ZM79.1819 99.58V96.88H86.8219V99.58H79.1819ZM92.1866 111V97.26H95.2466V111H92.1866ZM89.9866 103.88V101.28H97.4466V103.88H89.9866ZM107.215 111V105.46C107.215 104.953 107.055 104.547 106.735 104.24C106.428 103.92 106.035 103.76 105.555 103.76C105.222 103.76 104.928 103.833 104.675 103.98C104.422 104.113 104.222 104.313 104.075 104.58C103.928 104.833 103.855 105.127 103.855 105.46L102.675 104.88C102.675 104.12 102.835 103.453 103.155 102.88C103.475 102.307 103.922 101.867 104.495 101.56C105.068 101.24 105.728 101.08 106.475 101.08C107.235 101.08 107.902 101.24 108.475 101.56C109.048 101.867 109.488 102.3 109.795 102.86C110.115 103.407 110.275 104.047 110.275 104.78V111H107.215ZM100.795 111V96.48H103.855V111H100.795ZM119.04 111.22C117.987 111.22 117.047 111.007 116.22 110.58C115.407 110.14 114.767 109.533 114.3 108.76C113.833 107.987 113.6 107.113 113.6 106.14C113.6 105.167 113.827 104.3 114.28 103.54C114.747 102.767 115.373 102.16 116.16 101.72C116.947 101.28 117.833 101.06 118.82 101.06C119.78 101.06 120.627 101.267 121.36 101.68C122.093 102.093 122.667 102.667 123.08 103.4C123.507 104.133 123.72 104.973 123.72 105.92C123.72 106.093 123.707 106.28 123.68 106.48C123.667 106.667 123.633 106.887 123.58 107.14L115.2 107.16V105.06L122.28 105.04L120.96 105.92C120.947 105.36 120.86 104.9 120.7 104.54C120.54 104.167 120.3 103.887 119.98 103.7C119.673 103.5 119.293 103.4 118.84 103.4C118.36 103.4 117.94 103.513 117.58 103.74C117.233 103.953 116.96 104.26 116.76 104.66C116.573 105.06 116.48 105.547 116.48 106.12C116.48 106.693 116.58 107.187 116.78 107.6C116.993 108 117.287 108.313 117.66 108.54C118.047 108.753 118.5 108.86 119.02 108.86C119.5 108.86 119.933 108.78 120.32 108.62C120.707 108.447 121.047 108.193 121.34 107.86L123.02 109.54C122.54 110.1 121.96 110.52 121.28 110.8C120.6 111.08 119.853 111.22 119.04 111.22ZM127.197 111V101.28H130.257V111H127.197ZM130.257 105.66L128.977 104.66C129.231 103.527 129.657 102.647 130.257 102.02C130.857 101.393 131.691 101.08 132.757 101.08C133.224 101.08 133.631 101.153 133.977 101.3C134.337 101.433 134.651 101.647 134.917 101.94L133.097 104.24C132.964 104.093 132.797 103.98 132.597 103.9C132.397 103.82 132.171 103.78 131.917 103.78C131.411 103.78 131.004 103.94 130.697 104.26C130.404 104.567 130.257 105.033 130.257 105.66ZM142.259 111.22C141.206 111.22 140.266 111.007 139.439 110.58C138.626 110.14 137.986 109.533 137.519 108.76C137.052 107.987 136.819 107.113 136.819 106.14C136.819 105.167 137.046 104.3 137.499 103.54C137.966 102.767 138.592 102.16 139.379 101.72C140.166 101.28 141.052 101.06 142.039 101.06C142.999 101.06 143.846 101.267 144.579 101.68C145.312 102.093 145.886 102.667 146.299 103.4C146.726 104.133 146.939 104.973 146.939 105.92C146.939 106.093 146.926 106.28 146.899 106.48C146.886 106.667 146.852 106.887 146.799 107.14L138.419 107.16V105.06L145.499 105.04L144.179 105.92C144.166 105.36 144.079 104.9 143.919 104.54C143.759 104.167 143.519 103.887 143.199 103.7C142.892 103.5 142.512 103.4 142.059 103.4C141.579 103.4 141.159 103.513 140.799 103.74C140.452 103.953 140.179 104.26 139.979 104.66C139.792 105.06 139.699 105.547 139.699 106.12C139.699 106.693 139.799 107.187 139.999 107.6C140.212 108 140.506 108.313 140.879 108.54C141.266 108.753 141.719 108.86 142.239 108.86C142.719 108.86 143.152 108.78 143.539 108.62C143.926 108.447 144.266 108.193 144.559 107.86L146.239 109.54C145.759 110.1 145.179 110.52 144.499 110.8C143.819 111.08 143.072 111.22 142.259 111.22ZM154.736 111.22C153.843 111.22 153.049 111.04 152.356 110.68C151.676 110.307 151.143 109.8 150.756 109.16C150.369 108.507 150.176 107.76 150.176 106.92V101.28H153.236V106.88C153.236 107.213 153.289 107.5 153.396 107.74C153.516 107.98 153.689 108.167 153.916 108.3C154.143 108.433 154.416 108.5 154.736 108.5C155.189 108.5 155.549 108.36 155.816 108.08C156.083 107.787 156.216 107.387 156.216 106.88V101.28H159.276V106.9C159.276 107.753 159.083 108.507 158.696 109.16C158.309 109.8 157.776 110.307 157.096 110.68C156.416 111.04 155.629 111.22 154.736 111.22ZM163.197 111V101.28H166.257V111H163.197ZM169.417 111V105.32C169.417 104.827 169.264 104.447 168.957 104.18C168.664 103.9 168.297 103.76 167.857 103.76C167.551 103.76 167.277 103.827 167.037 103.96C166.797 104.08 166.604 104.253 166.457 104.48C166.324 104.707 166.257 104.987 166.257 105.32L165.077 104.8C165.077 104.027 165.244 103.367 165.577 102.82C165.911 102.26 166.364 101.833 166.937 101.54C167.511 101.233 168.157 101.08 168.877 101.08C169.557 101.08 170.164 101.233 170.697 101.54C171.244 101.847 171.677 102.273 171.997 102.82C172.317 103.367 172.477 104.02 172.477 104.78V111H169.417ZM175.637 111V105.32C175.637 104.827 175.484 104.447 175.177 104.18C174.884 103.9 174.517 103.76 174.077 103.76C173.771 103.76 173.497 103.827 173.257 103.96C173.017 104.08 172.824 104.253 172.677 104.48C172.544 104.707 172.477 104.987 172.477 105.32L170.717 105.08C170.744 104.253 170.937 103.547 171.297 102.96C171.671 102.36 172.157 101.9 172.757 101.58C173.371 101.247 174.057 101.08 174.817 101.08C175.564 101.08 176.224 101.24 176.797 101.56C177.384 101.867 177.844 102.313 178.177 102.9C178.524 103.473 178.697 104.167 178.697 104.98V111H175.637Z" fill="white"/>
<defs>
<filter id="filter0_b_1_2991" x="-24.6362" y="-25" width="305" height="180" filterUnits="userSpaceOnUse" color-interpolation-filters="sRGB">
<feFlood flood-opacity="0" result="BackgroundImageFix"/>
<feGaussianBlur in="BackgroundImageFix" stdDeviation="12.5"/>
<feComposite in2="SourceAlpha" operator="in" result="effect1_backgroundBlur_1_2991"/>
<feBlend mode="normal" in="SourceGraphic" in2="effect1_backgroundBlur_1_2991" result="shape"/>
</filter>
<linearGradient id="paint0_linear_1_2991" x1="-10.2096" y1="-9.21276" x2="95.0018" y2="228.682" gradientUnits="userSpaceOnUse">
<stop stop-color="white" stop-opacity="0.44"/>
<stop offset="1" stop-color="#8F8F8F" stop-opacity="0.21"/>
</linearGradient>
<linearGradient id="paint1_linear_1_2991" x1="-23.001" y1="-15.4989" x2="89.753" y2="234.948" gradientUnits="userSpaceOnUse">
<stop stop-color="#E025CE"/>
<stop offset="0.505208" stop-color="white" stop-opacity="0"/>
<stop offset="1" stop-color="#E025CE"/>
</linearGradient>
</defs>
</svg>
