<svg width="255" height="130" viewBox="0 0 255 130" fill="none" xmlns="http://www.w3.org/2000/svg">
<g filter="url(#filter0_b_1_3002)">
<rect x="1" y="1" width="253" height="128" rx="6" fill="url(#paint0_linear_1_3002)" fill-opacity="0.1"/>
<rect x="0.5" y="0.5" width="254" height="129" rx="6.5" stroke="url(#paint1_linear_1_3002)"/>
</g>
<path d="M149.476 23.5176L127.006 40.2761L131.161 30.3888L149.476 23.5176Z" fill="#E2761B"/>
<path d="M97.6033 23.5176L119.893 40.4349L115.941 30.3888L97.6033 23.5176ZM141.391 62.3638L135.407 71.5708L148.211 75.1085L151.892 62.5679L141.391 62.3638ZM95.2321 62.5679L98.8905 75.1085L111.695 71.5708L105.71 62.3638L95.2321 62.5679Z" fill="#E4761B"/>
<path d="M110.972 46.8072L107.404 52.2271L120.118 52.794L119.667 39.0743L110.972 46.8072ZM136.107 46.8072L127.3 38.9155L127.006 52.794L139.698 52.2271L136.107 46.8072ZM111.695 71.5709L119.328 67.8291L112.734 62.6587L111.695 71.5709ZM127.751 67.8291L135.407 71.5709L134.345 62.6587L127.751 67.8291Z" fill="#E4761B"/>
<path d="M135.407 71.5709L127.751 67.8291L128.361 72.8408L128.293 74.9498L135.407 71.5709ZM111.695 71.5709L118.809 74.9498L118.763 72.8408L119.328 67.8291L111.695 71.5709Z" fill="#D7C1B3"/>
<path d="M118.922 59.3477L112.553 57.4655L117.047 55.4019L118.922 59.3477ZM128.158 59.3477L130.032 55.4019L134.549 57.4655L128.158 59.3477Z" fill="#233447"/>
<path d="M111.695 71.5708L112.779 62.3638L105.711 62.5679L111.695 71.5708ZM134.323 62.3638L135.407 71.5708L141.391 62.5679L134.323 62.3638ZM139.698 52.2271L127.006 52.794L128.18 59.3477L130.055 55.4019L134.571 57.4655L139.698 52.2271ZM112.553 57.4655L117.07 55.4019L118.922 59.3477L120.118 52.794L107.404 52.2271L112.553 57.4655Z" fill="#CD6116"/>
<path d="M107.404 52.2271L112.734 62.6586L112.553 57.4655L107.404 52.2271ZM134.571 57.4655L134.345 62.6586L139.698 52.2271L134.571 57.4655ZM120.118 52.794L118.921 59.3477L120.412 67.0807L120.751 56.8986L120.118 52.794ZM127.006 52.794L126.396 56.8759L126.667 67.0807L128.18 59.3477L127.006 52.794Z" fill="#E4751F"/>
<path d="M128.181 59.3478L126.667 67.0808L127.751 67.8291L134.346 62.6587L134.571 57.4656L128.181 59.3478ZM112.553 57.4656L112.734 62.6587L119.328 67.8291L120.412 67.0808L118.922 59.3478L112.553 57.4656Z" fill="#F6851B"/>
<path d="M128.293 74.9497L128.361 72.8407L127.797 72.3418H119.283L118.763 72.8407L118.809 74.9497L111.695 71.5708L114.179 73.6118L119.215 77.1267H127.864L132.923 73.6118L135.407 71.5708L128.293 74.9497Z" fill="#C0AD9E"/>
<path d="M127.751 67.8292L126.667 67.0808H120.412L119.328 67.8292L118.763 72.8408L119.283 72.3419H127.797L128.361 72.8408L127.751 67.8292Z" fill="#161616"/>
<path d="M150.425 41.3646L152.344 32.1123L149.476 23.5176L127.751 39.7092L136.107 46.8072L147.918 50.2768L150.538 47.2154L149.408 46.399L151.215 44.7435L149.815 43.655L151.621 42.2717L150.425 41.3646ZM94.7579 32.1123L96.6775 41.3646L95.458 42.2717L97.2646 43.655L95.8871 44.7435L97.6937 46.399L96.5646 47.2154L99.1616 50.2768L110.972 46.8072L119.328 39.7092L97.6034 23.5176L94.7579 32.1123Z" fill="#763D16"/>
<path d="M147.918 50.2769L136.107 46.8073L139.698 52.2272L134.346 62.6587L141.391 62.568H151.892L147.918 50.2769ZM110.972 46.8073L99.1615 50.2769L95.2321 62.568H105.71L112.734 62.6587L107.404 52.2272L110.972 46.8073ZM127.006 52.7941L127.751 39.7093L131.184 30.3889H115.941L119.328 39.7093L120.118 52.7941L120.389 56.9214L120.412 67.0808H126.667L126.713 56.9214L127.006 52.7941Z" fill="#F6851B"/>
<path opacity="0.7" d="M73.4909 110V95.88H75.7309L81.2909 104.54H80.1509L85.6909 95.88H87.9509V110H84.8109V101.18L85.3709 101.32L81.7509 106.96H79.6709L76.0709 101.32L76.6109 101.18V110H73.4909ZM97.1788 110.22C96.1255 110.22 95.1855 110.007 94.3588 109.58C93.5455 109.14 92.9055 108.533 92.4388 107.76C91.9722 106.987 91.7388 106.113 91.7388 105.14C91.7388 104.167 91.9655 103.3 92.4188 102.54C92.8855 101.767 93.5122 101.16 94.2988 100.72C95.0855 100.28 95.9722 100.06 96.9588 100.06C97.9188 100.06 98.7655 100.267 99.4988 100.68C100.232 101.093 100.805 101.667 101.219 102.4C101.645 103.133 101.859 103.973 101.859 104.92C101.859 105.093 101.845 105.28 101.819 105.48C101.805 105.667 101.772 105.887 101.719 106.14L93.3388 106.16V104.06L100.419 104.04L99.0988 104.92C99.0855 104.36 98.9988 103.9 98.8388 103.54C98.6788 103.167 98.4388 102.887 98.1188 102.7C97.8122 102.5 97.4322 102.4 96.9788 102.4C96.4988 102.4 96.0788 102.513 95.7188 102.74C95.3722 102.953 95.0988 103.26 94.8988 103.66C94.7122 104.06 94.6188 104.547 94.6188 105.12C94.6188 105.693 94.7188 106.187 94.9188 106.6C95.1322 107 95.4255 107.313 95.7988 107.54C96.1855 107.753 96.6388 107.86 97.1588 107.86C97.6388 107.86 98.0722 107.78 98.4588 107.62C98.8455 107.447 99.1855 107.193 99.4788 106.86L101.159 108.54C100.679 109.1 100.099 109.52 99.4188 109.8C98.7388 110.08 97.9922 110.22 97.1788 110.22ZM106.501 110V96.26H109.561V110H106.501ZM104.301 102.88V100.28H111.761V102.88H104.301ZM118.974 110.2C118.081 110.2 117.281 109.98 116.574 109.54C115.881 109.1 115.327 108.5 114.914 107.74C114.514 106.98 114.314 106.113 114.314 105.14C114.314 104.167 114.514 103.3 114.914 102.54C115.327 101.78 115.881 101.18 116.574 100.74C117.281 100.3 118.081 100.08 118.974 100.08C119.627 100.08 120.214 100.207 120.734 100.46C121.267 100.713 121.701 101.067 122.034 101.52C122.367 101.96 122.554 102.467 122.594 103.04V107.24C122.554 107.813 122.367 108.327 122.034 108.78C121.714 109.22 121.287 109.567 120.754 109.82C120.221 110.073 119.627 110.2 118.974 110.2ZM119.594 107.44C120.247 107.44 120.774 107.227 121.174 106.8C121.574 106.36 121.774 105.807 121.774 105.14C121.774 104.687 121.681 104.287 121.494 103.94C121.321 103.593 121.067 103.327 120.734 103.14C120.414 102.94 120.041 102.84 119.614 102.84C119.187 102.84 118.807 102.94 118.474 103.14C118.154 103.327 117.894 103.593 117.694 103.94C117.507 104.287 117.414 104.687 117.414 105.14C117.414 105.58 117.507 105.973 117.694 106.32C117.881 106.667 118.141 106.94 118.474 107.14C118.807 107.34 119.181 107.44 119.594 107.44ZM121.654 110V107.38L122.114 105.02L121.654 102.66V100.28H124.654V110H121.654ZM129.089 110V95.88H131.329L136.889 104.54H135.749L141.289 95.88H143.549V110H140.409V101.18L140.969 101.32L137.349 106.96H135.269L131.669 101.32L132.209 101.18V110H129.089ZM152.036 110.2C151.143 110.2 150.343 109.98 149.636 109.54C148.943 109.1 148.39 108.5 147.976 107.74C147.576 106.98 147.376 106.113 147.376 105.14C147.376 104.167 147.576 103.3 147.976 102.54C148.39 101.78 148.943 101.18 149.636 100.74C150.343 100.3 151.143 100.08 152.036 100.08C152.69 100.08 153.276 100.207 153.796 100.46C154.33 100.713 154.763 101.067 155.096 101.52C155.43 101.96 155.616 102.467 155.656 103.04V107.24C155.616 107.813 155.43 108.327 155.096 108.78C154.776 109.22 154.35 109.567 153.816 109.82C153.283 110.073 152.69 110.2 152.036 110.2ZM152.656 107.44C153.31 107.44 153.836 107.227 154.236 106.8C154.636 106.36 154.836 105.807 154.836 105.14C154.836 104.687 154.743 104.287 154.556 103.94C154.383 103.593 154.13 103.327 153.796 103.14C153.476 102.94 153.103 102.84 152.676 102.84C152.25 102.84 151.87 102.94 151.536 103.14C151.216 103.327 150.956 103.593 150.756 103.94C150.57 104.287 150.476 104.687 150.476 105.14C150.476 105.58 150.57 105.973 150.756 106.32C150.943 106.667 151.203 106.94 151.536 107.14C151.87 107.34 152.243 107.44 152.656 107.44ZM154.716 110V107.38L155.176 105.02L154.716 102.66V100.28H157.716V110H154.716ZM165.411 110.24C164.838 110.24 164.271 110.167 163.711 110.02C163.164 109.873 162.651 109.667 162.171 109.4C161.704 109.12 161.304 108.8 160.971 108.44L162.711 106.68C163.031 107.027 163.411 107.3 163.851 107.5C164.291 107.687 164.771 107.78 165.291 107.78C165.651 107.78 165.924 107.727 166.111 107.62C166.311 107.513 166.411 107.367 166.411 107.18C166.411 106.94 166.291 106.76 166.051 106.64C165.824 106.507 165.531 106.393 165.171 106.3C164.811 106.193 164.431 106.08 164.031 105.96C163.631 105.84 163.251 105.673 162.891 105.46C162.531 105.247 162.238 104.953 162.011 104.58C161.784 104.193 161.671 103.707 161.671 103.12C161.671 102.493 161.831 101.953 162.151 101.5C162.471 101.033 162.924 100.667 163.511 100.4C164.098 100.133 164.784 100 165.571 100C166.398 100 167.158 100.147 167.851 100.44C168.558 100.72 169.131 101.14 169.571 101.7L167.831 103.46C167.524 103.1 167.178 102.847 166.791 102.7C166.418 102.553 166.051 102.48 165.691 102.48C165.344 102.48 165.084 102.533 164.911 102.64C164.738 102.733 164.651 102.873 164.651 103.06C164.651 103.26 164.764 103.42 164.991 103.54C165.218 103.66 165.511 103.767 165.871 103.86C166.231 103.953 166.611 104.067 167.011 104.2C167.411 104.333 167.791 104.513 168.151 104.74C168.511 104.967 168.804 105.273 169.031 105.66C169.258 106.033 169.371 106.527 169.371 107.14C169.371 108.087 169.011 108.84 168.291 109.4C167.584 109.96 166.624 110.24 165.411 110.24ZM179.251 110L175.851 104.96L179.231 100.28H182.651L178.571 105.54L178.671 104.28L182.851 110H179.251ZM173.031 110V95.48H176.091V110H173.031Z" fill="white"/>
<defs>
<filter id="filter0_b_1_3002" x="-25" y="-25" width="305" height="180" filterUnits="userSpaceOnUse" color-interpolation-filters="sRGB">
<feFlood flood-opacity="0" result="BackgroundImageFix"/>
<feGaussianBlur in="BackgroundImageFix" stdDeviation="12.5"/>
<feComposite in2="SourceAlpha" operator="in" result="effect1_backgroundBlur_1_3002"/>
<feBlend mode="normal" in="SourceGraphic" in2="effect1_backgroundBlur_1_3002" result="shape"/>
</filter>
<linearGradient id="paint0_linear_1_3002" x1="-10.5734" y1="-9.21276" x2="94.638" y2="228.682" gradientUnits="userSpaceOnUse">
<stop stop-color="white" stop-opacity="0.44"/>
<stop offset="1" stop-color="#8F8F8F" stop-opacity="0.21"/>
</linearGradient>
<linearGradient id="paint1_linear_1_3002" x1="-23.3648" y1="-15.4989" x2="89.3893" y2="234.948" gradientUnits="userSpaceOnUse">
<stop stop-color="#E025CE"/>
<stop offset="0.505208" stop-color="white" stop-opacity="0"/>
<stop offset="1" stop-color="#E025CE"/>
</linearGradient>
</defs>
</svg>
