<svg width="255" height="130" viewBox="0 0 255 130" fill="none" xmlns="http://www.w3.org/2000/svg">
<g filter="url(#filter0_b_1_3056)">
<rect x="1" y="1" width="253" height="128" rx="6" fill="url(#paint0_linear_1_3056)" fill-opacity="0.1"/>
<rect x="0.5" y="0.5" width="254" height="129" rx="6.5" stroke="url(#paint1_linear_1_3056)"/>
</g>
<path opacity="0.7" d="M108.586 110.24C107.52 110.24 106.533 110.053 105.626 109.68C104.733 109.307 103.946 108.787 103.266 108.12C102.586 107.453 102.06 106.68 101.686 105.8C101.313 104.907 101.126 103.947 101.126 102.92C101.126 101.88 101.313 100.92 101.686 100.04C102.06 99.16 102.58 98.3933 103.246 97.74C103.913 97.0733 104.693 96.56 105.586 96.2C106.493 95.8267 107.48 95.64 108.546 95.64C109.6 95.64 110.573 95.8267 111.466 96.2C112.373 96.56 113.16 97.0733 113.826 97.74C114.506 98.3933 115.033 99.1667 115.406 100.06C115.78 100.94 115.966 101.9 115.966 102.94C115.966 103.967 115.78 104.927 115.406 105.82C115.033 106.7 114.513 107.473 113.846 108.14C113.18 108.793 112.393 109.307 111.486 109.68C110.593 110.053 109.626 110.24 108.586 110.24ZM108.546 107.38C109.386 107.38 110.12 107.193 110.746 106.82C111.386 106.447 111.88 105.927 112.226 105.26C112.573 104.58 112.746 103.8 112.746 102.92C112.746 102.253 112.646 101.653 112.446 101.12C112.246 100.573 111.96 100.107 111.586 99.72C111.213 99.32 110.766 99.02 110.246 98.82C109.74 98.6067 109.173 98.5 108.546 98.5C107.706 98.5 106.966 98.6867 106.326 99.06C105.7 99.42 105.213 99.9333 104.866 100.6C104.52 101.253 104.346 102.027 104.346 102.92C104.346 103.587 104.446 104.193 104.646 104.74C104.846 105.287 105.126 105.76 105.486 106.16C105.86 106.547 106.306 106.847 106.826 107.06C107.346 107.273 107.92 107.38 108.546 107.38ZM125.9 110L122.5 104.96L125.88 100.28H129.3L125.22 105.54L125.32 104.28L129.5 110H125.9ZM119.68 110V95.48H122.74V110H119.68ZM136.968 110.22C135.915 110.22 134.975 110.007 134.148 109.58C133.335 109.14 132.695 108.533 132.228 107.76C131.761 106.987 131.528 106.113 131.528 105.14C131.528 104.167 131.755 103.3 132.208 102.54C132.675 101.767 133.301 101.16 134.088 100.72C134.875 100.28 135.761 100.06 136.748 100.06C137.708 100.06 138.555 100.267 139.288 100.68C140.021 101.093 140.595 101.667 141.008 102.4C141.435 103.133 141.648 103.973 141.648 104.92C141.648 105.093 141.635 105.28 141.608 105.48C141.595 105.667 141.561 105.887 141.508 106.14L133.128 106.16V104.06L140.208 104.04L138.888 104.92C138.875 104.36 138.788 103.9 138.628 103.54C138.468 103.167 138.228 102.887 137.908 102.7C137.601 102.5 137.221 102.4 136.768 102.4C136.288 102.4 135.868 102.513 135.508 102.74C135.161 102.953 134.888 103.26 134.688 103.66C134.501 104.06 134.408 104.547 134.408 105.12C134.408 105.693 134.508 106.187 134.708 106.6C134.921 107 135.215 107.313 135.588 107.54C135.975 107.753 136.428 107.86 136.948 107.86C137.428 107.86 137.861 107.78 138.248 107.62C138.635 107.447 138.975 107.193 139.268 106.86L140.948 108.54C140.468 109.1 139.888 109.52 139.208 109.8C138.528 110.08 137.781 110.22 136.968 110.22ZM150.891 110L148.551 106.22L147.891 105.8L144.071 100.28H147.651L149.831 103.82L150.471 104.22L154.431 110H150.891ZM143.891 110L147.871 104.34L149.611 106.3L147.231 110H143.891ZM150.451 105.78L148.711 103.82L150.911 100.28H154.231L150.451 105.78Z" fill="white"/>
<path d="M124.432 46.4321C126.448 46.9258 128.553 46.9258 130.569 46.4321C131.133 44.1412 132.312 42.0483 133.981 40.3801C135.649 38.7119 137.742 37.5322 140.033 36.9689C140.497 35.0698 140.524 33.0901 140.111 31.1792C139.698 29.2683 138.856 27.4763 137.649 25.9385C136.442 24.4006 134.901 23.1573 133.143 22.3022C131.385 21.4472 129.455 21.0029 127.5 21.0029C125.545 21.0029 123.616 21.4472 121.858 22.3022C120.099 23.1573 118.559 24.4006 117.352 25.9385C116.144 27.4763 115.303 29.2683 114.89 31.1792C114.477 33.0901 114.503 35.0698 114.968 36.9689C117.259 37.5316 119.352 38.711 121.021 40.3793C122.689 42.0475 123.869 44.1409 124.432 46.4321Z" fill="#7ABDF7"/>
<path d="M130.569 52.5668C128.553 52.0731 126.448 52.0731 124.432 52.5668C123.869 54.8577 122.689 56.9506 121.021 58.6188C119.353 60.287 117.26 61.4667 114.969 62.03C114.505 63.9291 114.478 65.9088 114.891 67.8197C115.304 69.7306 116.146 71.5226 117.353 73.0604C118.56 74.5982 120.101 75.8416 121.859 76.6966C123.617 77.5516 125.547 77.9959 127.502 77.9959C129.457 77.9959 131.386 77.5516 133.144 76.6966C134.902 75.8416 136.443 74.5982 137.65 73.0604C138.857 71.5226 139.699 69.7306 140.112 67.8197C140.525 65.9088 140.498 63.9291 140.034 62.03C137.743 61.4673 135.649 60.2879 133.981 58.6196C132.312 56.9514 131.132 54.858 130.569 52.5668Z" fill="#0D74F5"/>
<path d="M143.101 36.5978C142.068 36.5977 141.038 36.7219 140.034 36.9677C139.471 39.2585 138.292 41.3514 136.624 43.0194C134.956 44.6874 132.863 45.8668 130.572 46.4295C130.079 48.4455 130.079 50.5507 130.572 52.5667C132.863 53.1298 134.956 54.3095 136.624 55.9777C138.292 57.6459 139.471 59.739 140.034 62.0299C141.806 62.4628 143.65 62.5149 145.444 62.1829C147.237 61.8509 148.94 61.1423 150.44 60.1039C151.94 59.0654 153.202 57.7208 154.144 56.1586C155.086 54.5965 155.686 52.8523 155.904 51.0413C156.123 49.2302 155.955 47.3935 155.411 45.6522C154.868 43.9109 153.961 42.3047 152.751 40.9395C151.541 39.5743 150.055 38.4812 148.392 37.7323C146.729 36.9834 144.926 36.5958 143.101 36.595V36.5978Z" fill="#4494F7"/>
<path d="M124.432 52.566C124.926 50.5501 124.926 48.4448 124.432 46.4289C122.141 45.8661 120.048 44.6867 118.38 43.0188C116.712 41.3508 115.532 39.2579 114.969 36.9671C113.07 36.5027 111.09 36.4761 109.179 36.8891C107.268 37.302 105.476 38.1439 103.938 39.351C102.401 40.5581 101.157 42.0989 100.302 43.8571C99.4472 45.6152 99.0029 47.5446 99.0029 49.4996C99.0029 51.4546 99.4472 53.384 100.302 55.1421C101.157 56.9003 102.401 58.4411 103.938 59.6482C105.476 60.8553 107.268 61.6972 109.179 62.1101C111.09 62.5231 113.07 62.4965 114.969 62.0321C115.531 59.7406 116.711 57.6468 118.379 55.9781C120.047 54.3094 122.141 53.1293 124.432 52.566Z" fill="#005CF4"/>
<path d="M130.569 46.4325C132.86 45.8691 134.953 44.6894 136.621 43.0213C138.29 41.3531 139.469 39.2601 140.033 36.9692C137.742 37.5326 135.649 38.7123 133.981 40.3804C132.312 42.0486 131.133 44.1416 130.569 46.4325Z" fill="#186EF9"/>
<path d="M130.569 52.5664C131.132 54.8575 132.312 56.9507 133.98 58.619C135.648 60.2872 137.741 61.4668 140.033 62.0297C139.469 59.7388 138.29 57.6458 136.621 55.9776C134.953 54.3095 132.86 53.1298 130.569 52.5664Z" fill="#0246F2"/>
<path d="M124.432 46.4325C123.869 44.1416 122.689 42.0486 121.021 40.3804C119.353 38.7123 117.26 37.5326 114.969 36.9692C115.532 39.2601 116.712 41.3531 118.38 43.0213C120.048 44.6894 122.141 45.8691 124.432 46.4325Z" fill="#0046F8"/>
<path d="M124.432 52.5664C122.141 53.1298 120.048 54.3095 118.38 55.9776C116.712 57.6458 115.532 59.7388 114.969 62.0297C117.26 61.4663 119.353 60.2866 121.021 58.6185C122.689 56.9503 123.869 54.8573 124.432 52.5664Z" fill="#0729F1"/>
<path d="M124.432 46.4321C126.448 46.9258 128.553 46.9258 130.569 46.4321C131.133 44.1412 132.312 42.0483 133.981 40.3801C135.649 38.7119 137.742 37.5322 140.033 36.9689C140.497 35.0698 140.524 33.0901 140.111 31.1792C139.698 29.2683 138.856 27.4763 137.649 25.9385C136.442 24.4006 134.901 23.1573 133.143 22.3022C131.385 21.4472 129.455 21.0029 127.5 21.0029C125.545 21.0029 123.616 21.4472 121.858 22.3022C120.099 23.1573 118.559 24.4006 117.352 25.9385C116.144 27.4763 115.303 29.2683 114.89 31.1792C114.477 33.0901 114.503 35.0698 114.968 36.9689C117.259 37.5316 119.352 38.711 121.021 40.3793C122.689 42.0475 123.869 44.1409 124.432 46.4321Z" fill="#7ABDF7"/>
<path d="M130.569 52.5668C128.553 52.0731 126.448 52.0731 124.432 52.5668C123.869 54.8577 122.689 56.9506 121.021 58.6188C119.353 60.287 117.26 61.4667 114.969 62.03C114.505 63.9291 114.478 65.9088 114.891 67.8197C115.304 69.7306 116.146 71.5226 117.353 73.0604C118.56 74.5982 120.101 75.8416 121.859 76.6966C123.617 77.5516 125.547 77.9959 127.502 77.9959C129.457 77.9959 131.386 77.5516 133.144 76.6966C134.902 75.8416 136.443 74.5982 137.65 73.0604C138.857 71.5226 139.699 69.7306 140.112 67.8197C140.525 65.9088 140.498 63.9291 140.034 62.03C137.743 61.4673 135.649 60.2879 133.981 58.6196C132.312 56.9514 131.132 54.858 130.569 52.5668Z" fill="#0D74F5"/>
<path d="M143.101 36.5978C142.068 36.5977 141.038 36.7219 140.034 36.9677C139.471 39.2585 138.292 41.3514 136.624 43.0194C134.956 44.6874 132.863 45.8668 130.572 46.4295C130.079 48.4455 130.079 50.5507 130.572 52.5667C132.863 53.1298 134.956 54.3095 136.624 55.9777C138.292 57.6459 139.471 59.739 140.034 62.0299C141.806 62.4628 143.65 62.5149 145.444 62.1829C147.237 61.8509 148.94 61.1423 150.44 60.1039C151.94 59.0654 153.202 57.7208 154.144 56.1586C155.086 54.5965 155.686 52.8523 155.904 51.0413C156.123 49.2302 155.955 47.3935 155.411 45.6522C154.868 43.9109 153.961 42.3047 152.751 40.9395C151.541 39.5743 150.055 38.4812 148.392 37.7323C146.729 36.9834 144.926 36.5958 143.101 36.595V36.5978Z" fill="#4494F7"/>
<path d="M124.432 52.566C124.926 50.5501 124.926 48.4448 124.432 46.4289C122.141 45.8661 120.048 44.6867 118.38 43.0188C116.712 41.3508 115.532 39.2579 114.969 36.9671C113.07 36.5027 111.09 36.4761 109.179 36.8891C107.268 37.302 105.476 38.1439 103.938 39.351C102.401 40.5581 101.157 42.0989 100.302 43.8571C99.4472 45.6152 99.0029 47.5446 99.0029 49.4996C99.0029 51.4546 99.4472 53.384 100.302 55.1421C101.157 56.9003 102.401 58.4411 103.938 59.6482C105.476 60.8553 107.268 61.6972 109.179 62.1101C111.09 62.5231 113.07 62.4965 114.969 62.0321C115.531 59.7406 116.711 57.6468 118.379 55.9781C120.047 54.3094 122.141 53.1293 124.432 52.566Z" fill="#005CF4"/>
<path d="M130.569 46.4325C132.86 45.8691 134.953 44.6894 136.621 43.0213C138.29 41.3531 139.469 39.2601 140.033 36.9692C137.742 37.5326 135.649 38.7123 133.981 40.3804C132.312 42.0486 131.133 44.1416 130.569 46.4325Z" fill="#186EF9"/>
<path d="M130.569 52.5664C131.132 54.8575 132.312 56.9507 133.98 58.619C135.648 60.2872 137.741 61.4668 140.033 62.0297C139.469 59.7388 138.29 57.6458 136.621 55.9776C134.953 54.3095 132.86 53.1298 130.569 52.5664Z" fill="#0246F2"/>
<path d="M124.432 46.4325C123.869 44.1416 122.689 42.0486 121.021 40.3804C119.353 38.7123 117.26 37.5326 114.969 36.9692C115.532 39.2601 116.712 41.3531 118.38 43.0213C120.048 44.6894 122.141 45.8691 124.432 46.4325Z" fill="#0046F8"/>
<path d="M124.432 52.5664C122.141 53.1298 120.048 54.3095 118.38 55.9776C116.712 57.6458 115.532 59.7388 114.969 62.0297C117.26 61.4663 119.353 60.2866 121.021 58.6185C122.689 56.9503 123.869 54.8573 124.432 52.5664Z" fill="#0729F1"/>
<defs>
<filter id="filter0_b_1_3056" x="-25" y="-25" width="305" height="180" filterUnits="userSpaceOnUse" color-interpolation-filters="sRGB">
<feFlood flood-opacity="0" result="BackgroundImageFix"/>
<feGaussianBlur in="BackgroundImageFix" stdDeviation="12.5"/>
<feComposite in2="SourceAlpha" operator="in" result="effect1_backgroundBlur_1_3056"/>
<feBlend mode="normal" in="SourceGraphic" in2="effect1_backgroundBlur_1_3056" result="shape"/>
</filter>
<linearGradient id="paint0_linear_1_3056" x1="-10.5734" y1="-9.21276" x2="94.638" y2="228.682" gradientUnits="userSpaceOnUse">
<stop stop-color="white" stop-opacity="0.44"/>
<stop offset="1" stop-color="#8F8F8F" stop-opacity="0.21"/>
</linearGradient>
<linearGradient id="paint1_linear_1_3056" x1="-23.3648" y1="-15.4989" x2="89.3893" y2="234.948" gradientUnits="userSpaceOnUse">
<stop stop-color="#E025CE"/>
<stop offset="0.505208" stop-color="white" stop-opacity="0"/>
<stop offset="1" stop-color="#E025CE"/>
</linearGradient>
</defs>
</svg>
