<svg width="256" height="130" viewBox="0 0 256 130" fill="none" xmlns="http://www.w3.org/2000/svg">
<g filter="url(#filter0_b_1_3077)">
<rect x="1.59082" y="1" width="253" height="128" rx="6" fill="url(#paint0_linear_1_3077)" fill-opacity="0.1"/>
<rect x="1.09082" y="0.5" width="254" height="129" rx="6.5" stroke="url(#paint1_linear_1_3077)"/>
</g>
<path opacity="0.7" d="M96.8129 108.22C95.6529 108.22 94.6529 108.033 93.8129 107.66C92.9862 107.273 92.2262 106.693 91.5329 105.92L93.5729 103.9C94.0262 104.42 94.5262 104.827 95.0729 105.12C95.6329 105.4 96.2796 105.54 97.0129 105.54C97.6796 105.54 98.1929 105.42 98.5529 105.18C98.9262 104.94 99.1129 104.607 99.1129 104.18C99.1129 103.793 98.9929 103.48 98.7529 103.24C98.5129 103 98.1929 102.793 97.7929 102.62C97.4062 102.447 96.9729 102.28 96.4929 102.12C96.0262 101.96 95.5596 101.78 95.0929 101.58C94.6262 101.367 94.1929 101.107 93.7929 100.8C93.4062 100.48 93.0929 100.087 92.8529 99.62C92.6129 99.14 92.4929 98.54 92.4929 97.82C92.4929 96.9533 92.6996 96.2067 93.1129 95.58C93.5396 94.9533 94.1262 94.48 94.8729 94.16C95.6196 93.8267 96.4796 93.66 97.4529 93.66C98.4396 93.66 99.3396 93.8333 100.153 94.18C100.98 94.5267 101.66 95 102.193 95.6L100.153 97.62C99.7262 97.18 99.2929 96.8533 98.8529 96.64C98.4262 96.4267 97.9396 96.32 97.3929 96.32C96.8462 96.32 96.4129 96.4267 96.0929 96.64C95.7729 96.84 95.6129 97.1333 95.6129 97.52C95.6129 97.88 95.7329 98.1733 95.9729 98.4C96.2129 98.6133 96.5262 98.8 96.9129 98.96C97.3129 99.12 97.7462 99.28 98.2129 99.44C98.6929 99.6 99.1662 99.7867 99.6329 100C100.1 100.213 100.526 100.487 100.913 100.82C101.313 101.14 101.633 101.553 101.873 102.06C102.113 102.553 102.233 103.167 102.233 103.9C102.233 105.247 101.753 106.307 100.793 107.08C99.8329 107.84 98.5062 108.22 96.8129 108.22ZM110.574 108.22C109.574 108.22 108.668 108 107.854 107.56C107.054 107.107 106.421 106.493 105.954 105.72C105.488 104.947 105.254 104.08 105.254 103.12C105.254 102.16 105.488 101.3 105.954 100.54C106.421 99.78 107.054 99.18 107.854 98.74C108.654 98.2867 109.561 98.06 110.574 98.06C111.588 98.06 112.494 98.28 113.294 98.72C114.094 99.16 114.728 99.7667 115.194 100.54C115.661 101.3 115.894 102.16 115.894 103.12C115.894 104.08 115.661 104.947 115.194 105.72C114.728 106.493 114.094 107.107 113.294 107.56C112.494 108 111.588 108.22 110.574 108.22ZM110.574 105.44C111.014 105.44 111.401 105.347 111.734 105.16C112.068 104.96 112.321 104.687 112.494 104.34C112.681 103.98 112.774 103.573 112.774 103.12C112.774 102.667 112.681 102.273 112.494 101.94C112.308 101.593 112.048 101.327 111.714 101.14C111.394 100.94 111.014 100.84 110.574 100.84C110.148 100.84 109.768 100.94 109.434 101.14C109.101 101.327 108.841 101.593 108.654 101.94C108.468 102.287 108.374 102.687 108.374 103.14C108.374 103.58 108.468 103.98 108.654 104.34C108.841 104.687 109.101 104.96 109.434 105.16C109.768 105.347 110.148 105.44 110.574 105.44ZM119.418 108V93.48H122.478V108H119.418ZM130.693 108.2C129.799 108.2 128.999 107.98 128.293 107.54C127.599 107.1 127.046 106.5 126.633 105.74C126.233 104.98 126.033 104.113 126.033 103.14C126.033 102.167 126.233 101.3 126.633 100.54C127.046 99.78 127.599 99.18 128.293 98.74C128.999 98.3 129.799 98.08 130.693 98.08C131.346 98.08 131.933 98.2067 132.453 98.46C132.986 98.7133 133.419 99.0667 133.753 99.52C134.086 99.96 134.273 100.467 134.313 101.04V105.24C134.273 105.813 134.086 106.327 133.753 106.78C133.433 107.22 133.006 107.567 132.473 107.82C131.939 108.073 131.346 108.2 130.693 108.2ZM131.313 105.44C131.966 105.44 132.493 105.227 132.893 104.8C133.293 104.36 133.493 103.807 133.493 103.14C133.493 102.687 133.399 102.287 133.213 101.94C133.039 101.593 132.786 101.327 132.453 101.14C132.133 100.94 131.759 100.84 131.333 100.84C130.906 100.84 130.526 100.94 130.193 101.14C129.873 101.327 129.613 101.593 129.413 101.94C129.226 102.287 129.133 102.687 129.133 103.14C129.133 103.58 129.226 103.973 129.413 104.32C129.599 104.667 129.859 104.94 130.193 105.14C130.526 105.34 130.899 105.44 131.313 105.44ZM133.373 108V105.38L133.833 103.02L133.373 100.66V98.28H136.373V108H133.373ZM146.947 108V102.46C146.947 101.953 146.787 101.547 146.467 101.24C146.161 100.92 145.767 100.76 145.287 100.76C144.954 100.76 144.661 100.833 144.407 100.98C144.154 101.113 143.954 101.313 143.807 101.58C143.661 101.833 143.587 102.127 143.587 102.46L142.407 101.88C142.407 101.12 142.574 100.453 142.907 99.88C143.241 99.3067 143.701 98.8667 144.287 98.56C144.887 98.24 145.561 98.08 146.307 98.08C147.027 98.08 147.661 98.2533 148.207 98.6C148.767 98.9333 149.207 99.38 149.527 99.94C149.847 100.5 150.007 101.113 150.007 101.78V108H146.947ZM140.527 108V98.28H143.587V108H140.527ZM158.033 108.2C157.139 108.2 156.339 107.98 155.633 107.54C154.939 107.1 154.386 106.5 153.973 105.74C153.573 104.98 153.373 104.113 153.373 103.14C153.373 102.167 153.573 101.3 153.973 100.54C154.386 99.78 154.939 99.18 155.633 98.74C156.339 98.3 157.139 98.08 158.033 98.08C158.686 98.08 159.273 98.2067 159.793 98.46C160.326 98.7133 160.759 99.0667 161.093 99.52C161.426 99.96 161.613 100.467 161.653 101.04V105.24C161.613 105.813 161.426 106.327 161.093 106.78C160.773 107.22 160.346 107.567 159.813 107.82C159.279 108.073 158.686 108.2 158.033 108.2ZM158.653 105.44C159.306 105.44 159.833 105.227 160.233 104.8C160.633 104.36 160.833 103.807 160.833 103.14C160.833 102.687 160.739 102.287 160.553 101.94C160.379 101.593 160.126 101.327 159.793 101.14C159.473 100.94 159.099 100.84 158.673 100.84C158.246 100.84 157.866 100.94 157.533 101.14C157.213 101.327 156.953 101.593 156.753 101.94C156.566 102.287 156.473 102.687 156.473 103.14C156.473 103.58 156.566 103.973 156.753 104.32C156.939 104.667 157.199 104.94 157.533 105.14C157.866 105.34 158.239 105.44 158.653 105.44ZM160.713 108V105.38L161.173 103.02L160.713 100.66V98.28H163.713V108H160.713Z" fill="white"/>
<rect x="100" y="21" width="57" height="57" rx="8" fill="#1A1A1A"/>
<path d="M115.676 57.0063C115.908 56.784 116.223 56.6591 116.552 56.6591H146.879C147.431 56.6591 147.708 57.2985 147.317 57.6722L141.325 63.4027C141.092 63.6251 140.777 63.75 140.448 63.75H110.121C109.569 63.75 109.292 63.1106 109.683 62.7369L115.676 57.0063Z" fill="url(#paint2_linear_1_3077)"/>
<path d="M115.676 35.5973C115.908 35.3749 116.223 35.25 116.552 35.25H146.879C147.431 35.25 147.708 35.8894 147.317 36.2631L141.325 41.9937C141.092 42.216 140.777 42.3409 140.448 42.3409H110.121C109.569 42.3409 109.292 41.7015 109.683 41.3278L115.676 35.5973Z" fill="url(#paint3_linear_1_3077)"/>
<path d="M141.325 46.2336C141.092 46.0113 140.777 45.8864 140.448 45.8864H110.121C109.569 45.8864 109.292 46.5258 109.683 46.8994L115.676 52.63C115.908 52.8524 116.223 52.9773 116.552 52.9773H146.879C147.431 52.9773 147.708 52.3379 147.317 51.9642L141.325 46.2336Z" fill="url(#paint4_linear_1_3077)"/>
<defs>
<filter id="filter0_b_1_3077" x="-24.4092" y="-25" width="305" height="180" filterUnits="userSpaceOnUse" color-interpolation-filters="sRGB">
<feFlood flood-opacity="0" result="BackgroundImageFix"/>
<feGaussianBlur in="BackgroundImageFix" stdDeviation="12.5"/>
<feComposite in2="SourceAlpha" operator="in" result="effect1_backgroundBlur_1_3077"/>
<feBlend mode="normal" in="SourceGraphic" in2="effect1_backgroundBlur_1_3077" result="shape"/>
</filter>
<linearGradient id="paint0_linear_1_3077" x1="-9.98259" y1="-9.21276" x2="95.2289" y2="228.682" gradientUnits="userSpaceOnUse">
<stop stop-color="white" stop-opacity="0.44"/>
<stop offset="1" stop-color="#8F8F8F" stop-opacity="0.21"/>
</linearGradient>
<linearGradient id="paint1_linear_1_3077" x1="-22.774" y1="-15.4989" x2="89.9801" y2="234.948" gradientUnits="userSpaceOnUse">
<stop stop-color="#E025CE"/>
<stop offset="0.505208" stop-color="white" stop-opacity="0"/>
<stop offset="1" stop-color="#E025CE"/>
</linearGradient>
<linearGradient id="paint2_linear_1_3077" x1="135.19" y1="27.4323" x2="115.613" y2="66.6129" gradientUnits="userSpaceOnUse">
<stop stop-color="#00FFA3"/>
<stop offset="1" stop-color="#DC1FFF"/>
</linearGradient>
<linearGradient id="paint3_linear_1_3077" x1="135.19" y1="27.4323" x2="115.613" y2="66.6129" gradientUnits="userSpaceOnUse">
<stop stop-color="#00FFA3"/>
<stop offset="1" stop-color="#DC1FFF"/>
</linearGradient>
<linearGradient id="paint4_linear_1_3077" x1="135.19" y1="27.4323" x2="115.613" y2="66.6129" gradientUnits="userSpaceOnUse">
<stop stop-color="#00FFA3"/>
<stop offset="1" stop-color="#DC1FFF"/>
</linearGradient>
</defs>
</svg>
