<svg width="256" height="130" viewBox="0 0 256 130" fill="none" xmlns="http://www.w3.org/2000/svg">
<g filter="url(#filter0_b_1_3020)">
<rect x="1.77246" y="1" width="253" height="128" rx="6" fill="url(#paint0_linear_1_3020)" fill-opacity="0.1"/>
<rect x="1.27246" y="0.5" width="254" height="129" rx="6.5" stroke="url(#paint1_linear_1_3020)"/>
</g>
<path fill-rule="evenodd" clip-rule="evenodd" d="M124.974 66.6597C126.502 72.4886 131.986 76.9365 134.754 76.7543C134.851 76.7477 145.26 74.7477 150.957 64.9341C155.392 57.2984 153.881 49.9261 147.85 49.7658C145.681 49.9283 122.06 55.553 124.974 66.6597ZM130.212 22.773C126.284 22.773 122.557 23.6161 119.184 25.1199C118.594 25.3672 118.02 25.6495 117.463 25.9652C117.081 26.1693 116.699 26.3713 116.33 26.5909L116.418 26.6194C115.301 27.3944 114.339 28.2967 113.551 29.3417C105.751 39.6691 131.894 47.1752 145.87 47.2016C152.303 51.8274 154.107 34.1739 147.824 29.2737C142.922 25.0668 136.672 22.76 130.212 22.773Z" fill="#0E3CA5"/>
<path fill-rule="evenodd" clip-rule="evenodd" d="M120.387 28.8282C116.853 34.0204 105.077 37.6802 103.14 37.1094L103.131 37.0874L103.373 36.6198C105.396 32.8235 108.269 29.546 111.768 27.0433C112.493 26.523 113.244 26.0378 114.018 25.5856C115.663 24.6525 117.353 24.5954 117.909 24.5735C123.151 24.6701 120.414 28.7865 120.385 28.8282" fill="#5493F7"/>
<mask id="mask0_1_3020" style="mask-type:alpha" maskUnits="userSpaceOnUse" x="99" y="40" width="19" height="37">
<path d="M99.5312 40.7681H117.527V76.7578H99.5312V40.7681Z" fill="white"/>
</mask>
<g mask="url(#mask0_1_3020)">
<path fill-rule="evenodd" clip-rule="evenodd" d="M117.422 67.7368C117.685 69.4426 117.415 76.1848 117.06 76.7534C116.757 76.771 116.12 76.8105 114.282 75.7918C110.717 73.7829 107.612 71.0486 105.169 67.7653C103.382 65.3603 101.982 62.6906 101.02 59.853C100.029 56.9176 99.5266 53.8398 99.5313 50.7419C99.5258 47.3364 100.134 43.9578 101.327 40.7681H101.332C103.439 43.5321 105.876 46.0327 107.946 48.8253C109.92 51.4818 112.634 55.8134 113.185 56.7398C116.614 62.4853 117.161 66.0309 117.422 67.7368Z" fill="#5493F7"/>
</g>
<path fill-rule="evenodd" clip-rule="evenodd" d="M157.117 51.0612C157.117 54.7473 156.415 58.271 155.144 61.5027C151.807 65.1032 129.299 56.2424 129.077 56.1458C125.999 54.7934 116.629 50.6748 115.784 44.2071C114.568 34.9028 133.387 28.4175 141.657 28.1716C142.647 28.1826 145.666 28.2177 147.425 29.6535C150.474 32.3233 152.917 35.6148 154.588 39.3069C156.26 42.999 157.123 47.0061 157.117 51.059V51.0612ZM137.435 74.0759C138.781 69.3118 150.549 64.4292 153.146 64.1657C153.466 64.1328 153.603 64.3589 153.462 64.618C150.753 69.5446 146.742 73.6017 141.888 76.2318C139.433 77.4218 136.733 76.5546 137.435 74.0759Z" fill="#5493F7"/>
<path opacity="0.7" d="M105.073 111V97.08H108.213V111H105.073ZM100.653 99.62V96.88H112.633V99.62H100.653ZM118.582 111.22C117.529 111.22 116.589 111.007 115.762 110.58C114.949 110.14 114.309 109.533 113.842 108.76C113.375 107.987 113.142 107.113 113.142 106.14C113.142 105.167 113.369 104.3 113.822 103.54C114.289 102.767 114.915 102.16 115.702 101.72C116.489 101.28 117.375 101.06 118.362 101.06C119.322 101.06 120.169 101.267 120.902 101.68C121.635 102.093 122.209 102.667 122.622 103.4C123.049 104.133 123.262 104.973 123.262 105.92C123.262 106.093 123.249 106.28 123.222 106.48C123.209 106.667 123.175 106.887 123.122 107.14L114.742 107.16V105.06L121.822 105.04L120.502 105.92C120.489 105.36 120.402 104.9 120.242 104.54C120.082 104.167 119.842 103.887 119.522 103.7C119.215 103.5 118.835 103.4 118.382 103.4C117.902 103.4 117.482 103.513 117.122 103.74C116.775 103.953 116.502 104.26 116.302 104.66C116.115 105.06 116.022 105.547 116.022 106.12C116.022 106.693 116.122 107.187 116.322 107.6C116.535 108 116.829 108.313 117.202 108.54C117.589 108.753 118.042 108.86 118.562 108.86C119.042 108.86 119.475 108.78 119.862 108.62C120.249 108.447 120.589 108.193 120.882 107.86L122.562 109.54C122.082 110.1 121.502 110.52 120.822 110.8C120.142 111.08 119.395 111.22 118.582 111.22ZM126.739 111V101.28H129.799V111H126.739ZM129.799 105.66L128.519 104.66C128.773 103.527 129.199 102.647 129.799 102.02C130.399 101.393 131.233 101.08 132.299 101.08C132.766 101.08 133.173 101.153 133.519 101.3C133.879 101.433 134.193 101.647 134.459 101.94L132.639 104.24C132.506 104.093 132.339 103.98 132.139 103.9C131.939 103.82 131.713 103.78 131.459 103.78C130.953 103.78 130.546 103.94 130.239 104.26C129.946 104.567 129.799 105.033 129.799 105.66ZM137.216 111V101.28H140.276V111H137.216ZM140.276 105.66L138.996 104.66C139.249 103.527 139.676 102.647 140.276 102.02C140.876 101.393 141.709 101.08 142.776 101.08C143.242 101.08 143.649 101.153 143.996 101.3C144.356 101.433 144.669 101.647 144.936 101.94L143.116 104.24C142.982 104.093 142.816 103.98 142.616 103.9C142.416 103.82 142.189 103.78 141.936 103.78C141.429 103.78 141.022 103.94 140.716 104.26C140.422 104.567 140.276 105.033 140.276 105.66ZM151.537 111.2C150.644 111.2 149.844 110.98 149.137 110.54C148.444 110.1 147.891 109.5 147.477 108.74C147.077 107.98 146.877 107.113 146.877 106.14C146.877 105.167 147.077 104.3 147.477 103.54C147.891 102.78 148.444 102.18 149.137 101.74C149.844 101.3 150.644 101.08 151.537 101.08C152.191 101.08 152.777 101.207 153.297 101.46C153.831 101.713 154.264 102.067 154.597 102.52C154.931 102.96 155.117 103.467 155.157 104.04V108.24C155.117 108.813 154.931 109.327 154.597 109.78C154.277 110.22 153.851 110.567 153.317 110.82C152.784 111.073 152.191 111.2 151.537 111.2ZM152.157 108.44C152.811 108.44 153.337 108.227 153.737 107.8C154.137 107.36 154.337 106.807 154.337 106.14C154.337 105.687 154.244 105.287 154.057 104.94C153.884 104.593 153.631 104.327 153.297 104.14C152.977 103.94 152.604 103.84 152.177 103.84C151.751 103.84 151.371 103.94 151.037 104.14C150.717 104.327 150.457 104.593 150.257 104.94C150.071 105.287 149.977 105.687 149.977 106.14C149.977 106.58 150.071 106.973 150.257 107.32C150.444 107.667 150.704 107.94 151.037 108.14C151.371 108.34 151.744 108.44 152.157 108.44ZM154.217 111V108.38L154.677 106.02L154.217 103.66V101.28H157.217V111H154.217Z" fill="white"/>
<defs>
<filter id="filter0_b_1_3020" x="-24.2275" y="-25" width="305" height="180" filterUnits="userSpaceOnUse" color-interpolation-filters="sRGB">
<feFlood flood-opacity="0" result="BackgroundImageFix"/>
<feGaussianBlur in="BackgroundImageFix" stdDeviation="12.5"/>
<feComposite in2="SourceAlpha" operator="in" result="effect1_backgroundBlur_1_3020"/>
<feBlend mode="normal" in="SourceGraphic" in2="effect1_backgroundBlur_1_3020" result="shape"/>
</filter>
<linearGradient id="paint0_linear_1_3020" x1="-9.80095" y1="-9.21276" x2="95.4105" y2="228.682" gradientUnits="userSpaceOnUse">
<stop stop-color="white" stop-opacity="0.44"/>
<stop offset="1" stop-color="#8F8F8F" stop-opacity="0.21"/>
</linearGradient>
<linearGradient id="paint1_linear_1_3020" x1="-22.5923" y1="-15.4989" x2="90.1617" y2="234.948" gradientUnits="userSpaceOnUse">
<stop stop-color="#E025CE"/>
<stop offset="0.505208" stop-color="white" stop-opacity="0"/>
<stop offset="1" stop-color="#E025CE"/>
</linearGradient>
</defs>
</svg>
